inDegrees=yes
name=motion_pendulo.mot
DataType=double
version=3
OpenSimVersion=4.4-2022-07-23-0e9fedc
endheader
time	q1	q2
4.224970102310181	185.057638425615	24.34646501526188
4.228971004486084	183.622492453909	25.78161099283287
4.241964101791382	183.6224924563222	25.01825451789131
4.246968030929565	182.9144749211719	25.72627205378862
4.251981019973755	182.9144749216251	24.93403433056572
4.25596809387207	182.2312319455508	25.61727730732672
4.261965036392212	181.5749528822174	26.27355637058961
4.265974998474121	181.5749528825764	25.4183858735117
4.271966934204102	181.5749528826242	24.49941540644276
4.27796196937561	180.0925432680809	25.98182502756219
4.282977104187012	180.0925432694052	25.00344467398613
4.286950826644897	179.2338620844849	25.86212586029228
4.29495096206665	178.7135362014222	26.38245174237693
4.298946142196655	178.7135362014222	26.38245174237693
4.303952932357788	178.2512706683114	26.84471727540411
4.307980060577393	178.2512706684296	25.79852947848918
4.313982963562012	177.4420011831182	26.60779896500473
4.317965984344482	177.4420011832563	25.52465847522114
4.328984975814819	176.93820190289	26.02845775600542
4.34196400642395	176.9382019030962	24.43928955551969
4.345965147018433	176.5758853076727	24.80160615154749
4.350971937179565	176.5758853077297	23.70038401941009
4.356958866119385	176.0717621500773	24.20450717745012
4.360967874526977	176.0717621501257	23.12760102025888
4.365968942642212	175.876754633611	23.3226085369284
4.370981931686401	175.8767546336285	22.3643444897255
4.375981092453003	175.9118127907783	22.3292863326719
4.384970903396606	175.9118127907927	21.32419465101091
4.388958930969238	175.995321918125	21.24068552378716
4.392982959747314	175.9953219186548	17.68157289049923
4.401939868927002	176.1354744833983	17.54142033105784
4.406948089599609	176.1354744834133	16.48322648795275
4.410956144332886	176.4323832385541	16.18631773290789
4.415960073471069	176.4323832385747	15.15562506954603
4.421969890594482	176.4323832386683	13.35009799635364
4.433995008468628	176.4323832385692	12.41614479519175
4.446059942245483	176.4323832385685	11.49662177424884
4.450973033905029	176.6997149799097	11.22929003296719
4.456976890563965	176.6997149799831	9.873394062788186
4.463963985443115	176.6997149799231	9.089524183599787
4.468954801559448	176.989005953131	8.800233210407551
4.473966121673584	176.9890059531522	7.99598267435164
4.485970973968506	177.3357326159726	7.649256011520656
4.493966817855835	177.3357326159958	6.88428385236613
4.497965097427368	177.731658199583	6.488358268722051
4.502951860427856	177.7316581996064	5.756821360498317
4.507952928543091	178.1850006611604	5.303478898821178
4.511983871459961	178.1850006611787	4.611076328186898
4.518955945968628	179.3084939561093	3.487583030633073
4.523961067199707	179.3084939556819	2.845784297715841
4.534965991973877	179.3084939557413	2.01119800775776
4.54595685005188	180.2642509077017	1.055441054211165
4.552971124649048	180.2642509073485	0.5492255841548553
4.565977811813354	180.9587739665093	-0.1452974756262285
4.573966026306152	180.9587739663681	-0.5941004267586295
4.578965902328491	183.969906976742	-3.605233488969251
4.584964036941528	183.9699069590932	-3.99548853726195
4.588972091674805	185.4137818640483	-5.439363447913302
4.595001935958862	185.4137818618868	-6.032858111972395
4.600964069366455	186.1672968363973	-6.786373087273864
4.604973077774048	186.1672968360608	-7.005683845661019
4.610960960388184	186.9853921410566	-7.823779151713523
4.614963054656982	186.9853921405929	-7.986878769667052
4.620965957641602	188.3645890520565	-9.366075686274069
4.62597393989563	188.3645890495062	-9.501603264442995
4.636967897415161	188.7675797780862	-9.904593993152117
4.640960931777954	188.7675797780228	-10.01833344370458
4.649965047836304	188.7675797786445	-11.06299448467626
4.659963846206665	188.7675797782186	-11.77438426100242
4.670964956283569	188.7675797780074	-11.47585892920524
4.675966024398804	190.1957722464	-12.9040514018779
4.695000171661377	190.195772243931	-12.73744262863103
4.699969053268433	192.4633942984316	-15.00506469980901
4.703962802886963	192.463394287475	-14.6000063861602
4.707971096038818	194.3025819484355	-16.4391940560128
4.712939023971558	194.3025819418176	-16.11214109082783
4.717947959899902	195.1729891504862	-16.98254830043433
4.723007917404175	195.1729891496971	-16.50878677072431
4.740965843200684	195.1729891485423	-15.24920753235307
4.749966859817505	195.1729891495403	-14.53562548334692
4.757961988449097	195.9959196858717	-15.35855602054258
4.770959854125977	195.995919684201	-14.15735268398055
4.778978109359741	195.9959196850048	-13.41022150533959
4.786964893341064	195.9959196805561	-11.43541505492397
4.797967910766602	195.9959196822546	-9.734651449018299
4.803961753845215	196.911521856423	-10.65025362517057
4.808963060379028	196.9115218550035	-9.65451769043889
4.813956022262573	197.9148272136072	-10.65782305098261
4.817950963973999	197.9148272079161	-8.661153804020648
4.821949005126953	199.5119279296376	-10.25825453497961
4.827972888946533	199.5119278572482	-5.164899716337008
4.840975761413574	199.5119279172636	-2.618742791445253
4.849975109100342	199.5119278937712	1.332148295693771
4.853972911834717	203.7176189389199	-2.87354303947597
4.859966039657593	203.7176188833818	-0.7227191944744356
4.862963914871216	210.1612148998786	-7.166316297980083
4.870970964431763	210.1612147019318	-5.863187799600234
4.875962972640991	211.7743236793663	-7.476296794847754
4.889967203140259	211.7743236754136	-6.301040742778392
4.893966197967529	213.1732333952087	-7.699950474193624
4.898963928222656	213.1732333907802	-5.978710747179391
4.904956817626953	213.1732333906615	-4.22775513321645
4.910961866378784	213.1732333921653	-2.972917897649299
4.918949842453003	213.1732333921376	-1.704872331575906
4.925947904586792	213.1732333921326	-0.434502529083667
4.941989898681641	213.173233392198	0.8046864429055097
4.94697093963623	217.4003918682488	-3.422472331966683
4.952969074249268	217.4003918057269	-2.246961570229402
4.956963062286377	221.8938037814233	-6.740373911198541
4.96197509765625	221.8938036815757	-4.753369742461769
4.968977928161621	221.8938036856811	-3.806732403482316
4.99199104309082	221.8938036850055	-2.547196795499997
4.997977018356323	222.6588491596817	-3.312242272819836
5.013963937759399	222.6588491584286	-2.241233849911316
5.018957138061523	223.3415174805733	-2.923902173925494
5.022953987121582	223.3415174800488	-2.3066369006564
5.026971817016602	224.890682005351	-3.855801443557704
5.033028125762939	224.8906819999959	-3.311599998811052
5.03998589515686	224.763144885621	-3.184062884478239
5.048965930938721	224.7631448855549	-2.740714922218097
5.055972099304199	224.7631448855617	-2.312160651055365
5.059982776641846	224.4737113790868	-2.022727144489842
5.066973924636841	224.4737113791024	-1.735942203787445
5.07098913192749	223.5158723097964	-0.7781031303116945
5.075955867767334	223.5158723110377	-0.5926385085181095
5.0799720287323	219.7069102479503	3.216323814709782
5.083966970443726	219.7069103539905	3.32407045687646
5.08796501159668	218.5824582922837	4.448522525274193
5.09396505355835	218.5824583063244	2.265317533645459
5.099967002868652	212.4230818406675	8.424694992811823
5.104959011077881	212.4230822220299	8.442876316977609
5.108949899673462	205.3530597065762	15.51290032836441
5.112961053848267	205.3530601070949	14.36781767179716
5.122979164123535	203.0398096508679	16.68106817617966
5.131951808929443	200.5591111670978	19.16176667109784
5.136960983276367	200.5591111792643	18.89364273128438
5.158980131149292	200.5591111796912	17.90104389469561
5.166960954666138	198.0075992165438	20.45255591777028
5.171961784362793	198.0075992270993	20.39410173553493
5.175960063934326	196.9936248856665	21.40807608080284
5.180962085723877	196.9936248862639	21.25919039824514
5.184974193572998	196.1143574643314	22.13845782277609
5.191963911056518	196.1143574646993	22.06108774267826
5.197970867156982	195.2946468264349	22.88079838307901
5.203963994979858	195.2946468267388	22.62206994889688
5.208991050720215	194.5077913841329	23.40892539344098
5.214970827102661	194.5077913844164	23.19731435221214
5.218959808349609	193.7239106993553	23.9811950391859
5.226963043212891	193.7239106996622	23.73392004256251
5.230952978134155	192.8672117721024	24.59061897258608
5.236953973770142	192.8672117753149	22.62712619553678
5.244984149932861	192.867211865572	16.30511379300162
5.252973079681396	192.867211773503	14.91685094096063
5.262961864471435	192.8672117727063	14.11689029588148
5.271962881088257	191.8234523974869	15.1606496728022
5.276978969573975	191.8234523984793	14.35860796142002
5.283961772918701	187.7968756911229	18.38518475560196
5.288973093032837	187.7968757335657	17.76411639241482
5.296982049942017	187.7968757335668	17.14049644494276
5.301959991455078	186.834578768367	18.10279341120208
5.30597710609436	186.8345787692178	17.10459528606631
5.30996298789978	185.5266017659719	18.41257229182304
5.315962791442871	185.5266017671304	17.65478211673109
5.320953845977783	183.8271122463659	19.3542716427178
5.324960947036743	183.8271122478379	18.53129716051347
5.331959962844849	183.0226056086213	19.33580380031463
5.336950063705444	183.0226056088249	18.37064749825622
5.341942071914673	182.2516400228141	19.14161308481255
5.3469398021698	182.2516400229318	18.23848345443202
5.350970983505249	181.515387378563	18.97473609927487
5.355968952178955	181.5153873786526	17.93688165507981
5.363966941833496	181.5153873792136	15.61112115773996
5.37296199798584	181.5153873786936	14.36105571921008
5.378969192504883	178.7146979146898	17.1617452076089
5.382965087890625	178.7146979153236	15.91328606135708
5.388964891433716	178.1388765750693	16.48910740194877
5.392967939376831	178.138876575174	14.86110574184326
5.397963047027588	177.2474172608217	15.75256505699589
5.404962062835693	177.2474172608947	14.82853547341021
5.409960985183716	176.858276902794	15.21767583158506
5.420963048934936	176.4652464619438	15.61070627243633
5.430964946746826	176.4652464619703	14.79325954073495
5.437946796417236	176.4652464619737	13.93562776194227
5.442950963973999	176.3401735445959	14.06070067935257
